<?xml version="1.0" standalone="no"?>
<!DOCTYPE svg PUBLIC "-//W3C//DTD SVG 20010904//EN"
 "http://www.w3.org/TR/2001/REC-SVG-20010904/DTD/svg10.dtd">
<svg version="1.0" xmlns="http://www.w3.org/2000/svg"
 width="480.000000pt" height="111.000000pt" viewBox="0 0 480.000000 111.000000"
 preserveAspectRatio="xMidYMid meet">
<metadata>
Created by potrace 1.16, written by Peter Selinger 2001-2019
</metadata>
<g transform="translate(0.000000,111.000000) scale(0.100000,-0.100000)"
fill="#000000" stroke="none">
<path d="M0 1085 l0 -25 20 20 c20 20 33 20 2381 20 1608 0 2366 -3 2380 -10
15 -8 19 -7 19 5 0 13 -249 15 -2400 15 l-2400 0 0 -25z"/>
<path d="M555 1019 c-36 -32 -65 -33 -65 -4 0 12 -6 14 -27 9 -16 -4 -36 -11
-45 -15 -9 -5 -27 -9 -39 -9 -17 0 -88 -34 -117 -55 -7 -5 31 -65 43 -65 7 0
18 -7 25 -15 7 -8 22 -15 34 -15 24 0 97 -36 108 -54 14 -21 8 -26 -32 -26
l-40 0 0 -134 c0 -128 -1 -136 -22 -150 -12 -9 -42 -16 -67 -16 -40 0 -49 -5
-98 -55 -51 -52 -57 -55 -104 -55 -42 0 -49 -3 -49 -20 0 -17 7 -20 44 -20 36
0 48 -5 63 -26 l19 -26 17 26 c13 20 26 26 52 26 43 0 51 -14 26 -39 l-21 -21
23 -14 c51 -33 74 -31 140 15 34 24 64 47 65 51 2 4 23 8 46 8 33 0 48 -6 66
-26 21 -21 30 -24 61 -19 31 5 39 3 48 -13 6 -11 8 -22 4 -25 -3 -4 -6 -15 -7
-25 0 -11 -12 -33 -24 -50 -23 -29 -27 -30 -77 -25 -52 5 -54 5 -60 -20 -10
-37 2 -49 43 -45 22 2 37 -2 40 -10 3 -9 36 -12 119 -12 101 0 114 2 109 16
-3 9 -6 18 -6 20 0 2 -8 4 -18 4 -10 0 -22 4 -28 9 -5 5 -22 11 -39 13 -26 3
-30 7 -30 33 0 25 5 32 33 40 25 7 32 15 34 37 0 15 1 34 2 41 1 6 -9 13 -21
15 -23 3 -50 29 -40 38 3 3 16 -1 29 -10 25 -16 97 -22 139 -11 22 6 27 3 32
-15 5 -20 10 -22 39 -16 188 39 545 55 1303 61 939 7 2427 24 2432 28 8 8
-1092 17 -2146 17 -1125 1 -1385 7 -1560 39 -30 6 -65 8 -78 5 -14 -4 -23 -2
-23 5 0 6 -6 11 -13 11 -30 0 -67 26 -67 47 0 12 3 23 8 25 4 2 19 20 34 40
22 28 26 43 22 67 -6 27 -4 31 16 31 12 0 49 19 81 42 74 51 77 80 14 113 -22
11 -41 23 -43 28 -2 4 -13 7 -24 7 -30 0 -88 39 -88 58 0 9 -9 32 -20 50 -17
27 -25 32 -59 32 -44 0 -74 22 -64 46 5 13 1 15 -24 10 -21 -5 -34 -2 -43 9
-19 23 -46 18 -85 -16z m107 -391 c3 -68 3 -149 0 -180 l-4 -58 -113 0 -112 0
-6 83 c-9 107 -9 262 0 270 3 4 57 7 118 7 l112 0 5 -122z"/>
<path d="M1367 908 c-10 -37 3 -68 27 -68 40 0 46 -18 46 -140 0 -122 -6 -140
-46 -140 -26 0 -36 -22 -28 -56 l6 -24 153 0 c121 0 155 3 165 15 19 23 7 49
-33 68 -28 13 -37 23 -37 42 0 25 1 25 85 25 78 0 88 2 110 25 23 22 25 31 25
123 0 95 -1 99 -28 125 l-28 27 -206 0 c-204 0 -206 0 -211 -22z"/>
<path d="M2043 922 c-11 -7 -30 -60 -95 -271 -20 -64 -27 -75 -54 -87 -35 -15
-45 -32 -37 -63 5 -21 9 -21 298 -21 l293 0 6 24 c9 35 -1 53 -34 60 -31 6
-60 48 -60 85 0 11 -4 23 -10 26 -5 3 -10 15 -10 26 0 11 -12 57 -26 102 -43
140 -28 127 -151 127 -60 0 -114 -4 -120 -8z"/>
<path d="M2504 916 c-3 -8 -4 -27 -2 -43 2 -21 9 -29 28 -31 42 -6 50 -27 50
-142 0 -114 -8 -133 -55 -142 -15 -2 -20 -11 -20 -38 l0 -35 145 0 145 0 0 34
c0 31 -4 36 -32 43 -23 6 -35 16 -39 34 -4 14 -4 28 0 31 3 3 40 -28 83 -71
l77 -77 105 3 106 3 3 33 c3 29 0 33 -28 38 -17 4 -35 15 -40 25 -13 24 -13
215 0 240 6 10 19 19 28 19 24 0 42 19 42 46 0 39 -20 45 -156 42 l-129 -3 0
-40 c0 -34 3 -40 23 -43 28 -4 48 -43 35 -66 -8 -14 -23 -2 -92 69 l-82 85
-95 0 c-72 0 -96 -3 -100 -14z"/>
<path d="M3192 918 c-16 -16 -15 -53 1 -65 6 -6 25 -13 40 -17 l28 -7 -3 -127
-3 -127 -35 -11 c-31 -10 -35 -16 -35 -45 l0 -34 160 0 160 0 0 35 c0 28 -4
36 -22 38 -39 6 -44 23 -41 153 l3 124 30 5 c27 5 30 9 30 45 l0 40 -150 3
c-109 2 -154 -1 -163 -10z"/>
<path d="M3584 916 c-3 -8 -4 -27 -2 -43 2 -21 9 -29 28 -31 42 -6 50 -27 50
-141 0 -58 -4 -112 -9 -119 -4 -7 -21 -16 -37 -21 -25 -6 -29 -12 -29 -42 l0
-34 145 0 145 0 0 34 c0 30 -4 36 -31 43 -32 8 -48 36 -37 63 3 10 15 2 36
-23 18 -20 52 -56 77 -79 l44 -44 106 3 105 3 3 32 c3 28 -1 32 -31 42 -42 14
-47 28 -47 143 0 98 11 138 38 138 26 0 42 20 42 52 0 36 -15 40 -165 36
l-120 -3 0 -39 c0 -36 3 -40 33 -48 28 -8 32 -13 32 -43 0 -44 -12 -44 -47 -2
-16 17 -51 56 -79 85 l-51 52 -97 0 c-74 0 -98 -3 -102 -14z"/>
<path d="M4273 924 c-7 -3 -13 -21 -13 -39 0 -31 3 -35 40 -45 l40 -11 0 -123
c0 -131 -3 -141 -50 -148 -21 -2 -25 -8 -25 -38 l0 -35 163 -3 163 -3 -3 38
c-2 29 -8 39 -23 41 -41 8 -45 20 -45 141 0 64 4 121 8 127 4 6 20 14 35 18
25 6 28 10 25 44 l-3 37 -150 2 c-82 1 -156 -1 -162 -3z"/>
<path d="M0 21 l0 -21 2400 0 c2151 0 2400 2 2400 15 0 12 -4 13 -19 5 -14 -7
-772 -10 -2378 -10 -2118 0 -2361 2 -2381 16 -21 14 -22 14 -22 -5z"/>
</g>
</svg>
